# xmcd
#
# Track frame offsets:
# 150
# 17637
# 31027
# 48465
# 62717
# 75194
# 93132
# 113062
# 127792
# 146259
# 162654
# 182954
# 196752
# 210967
#
# Disc length: 2990 seconds
#
#
# Revision: 0
# Processed by: cddbd v1.5PL3 Copyright (c) Steve Scherf et al.
# Submitted via: FreeRIP 2.52 
#
DISCID=a40bac0e
DTITLE=Ilse de lange - World of hurt
DYEAR=1900
DGENRE=Blues
TTITLE0=Flying  Blind
TTITLE1=Lonely Too
TTITLE2=Just Like The Moon
TTITLE3=What Does Your Heart Say Now
TTITLE4=I'd Be Yours
TTITLE5=World Of Hurt
TTITLE6=All The Woman You'll Ever Need
TTITLE7=If You Had The Heart
TTITLE8=Flying Solo
TTITLE9=Old Tears
TTITLE10=I'm Not So Tough
TTITLE11=When We Don't Talk
TTITLE12=Tap Dancing On  The Highwire
TTITLE13=You Are The Dream
EXTD=
EXTT0=
EXTT1=
EXTT2=
EXTT3=
EXTT4=
EXTT5=
EXTT6=
EXTT7=
EXTT8=
EXTT9=
EXTT10=
EXTT11=
EXTT12=
EXTT13=
PLAYORDER=
